<svg width="151" height="205" viewBox="0 0 151 205" fill="none" xmlns="http://www.w3.org/2000/svg">
<path d="M150.921 197.627C150.373 187.76 142.515 181.912 138.495 173.506C132.83 161.628 142.88 151.578 129.906 139.883C116.932 128.37 123.51 123.071 115.835 113.751C107.978 104.432 92.0797 107.173 92.0797 107.173H59.5526C59.5526 107.173 43.6545 104.432 35.7968 113.751C27.9392 123.071 34.7004 128.37 21.7261 139.883C8.75184 151.395 18.8023 161.446 13.1375 173.506C10.7619 178.44 6.92448 182.278 4.18343 187.029C-8.97359 208.409 11.1274 235.271 34.1522 235.271C34.1522 235.271 117.663 235.271 117.845 235.271C126.982 235.271 135.936 231.434 142.332 224.855C148.911 217.546 151.469 207.312 150.921 197.627Z" fill="#FF647C"/>
<path d="M75.6333 90.9099L59.918 88.3516C59.918 88.3516 59.918 109.001 59.918 123.437C59.918 137.325 74.5369 140.614 75.6333 140.98C76.7297 140.797 91.1659 137.508 91.1659 123.62C91.1659 109.184 91.1659 88.5343 91.1659 88.5343L75.6333 90.9099Z" fill="#F9D3B7"/>
<path d="M75.6326 68.6169L91.3479 66.0586C91.3479 66.0586 91.3479 86.7078 91.3479 101.144C91.3479 108.088 87.6932 112.474 84.0385 115.032C80.3837 117.59 75.9981 118.687 71.4297 118.504C67.4095 118.321 62.1101 116.494 60.4655 112.839C59.3691 110.281 60.1 106.261 60.1 101.327C60.1 86.8905 60.1 66.2413 60.1 66.2413L75.6326 68.6169Z" fill="#F7B7A1"/>
<path d="M46.3958 61.489C46.3958 61.489 46.2131 58.7479 40.731 57.6515C35.2489 56.5551 33.2388 75.377 43.2893 77.3871C53.3398 79.3972 52.2434 65.5092 46.3958 61.489Z" fill="#F4C19F"/>
<path d="M97.3798 71.7233C97.3798 71.7233 98.6589 69.165 104.141 70.2614C109.623 71.3579 104.141 89.4488 94.2732 87.4387C84.2227 85.6113 90.6185 73.1852 97.3798 71.7233Z" fill="#F4C19F"/>
<path d="M64.1213 107.723C48.9541 104.616 39.0864 89.8145 42.1929 74.8302L46.3958 53.9982C49.5023 38.8311 64.304 28.9633 79.2884 32.0698C94.4555 35.1764 104.323 49.978 101.217 64.9624L97.0138 85.7943C94.09 100.961 79.2884 110.829 64.1213 107.723Z" fill="#F9D3B7"/>
<path d="M93.36 83.418C95.0047 75.0121 84.0405 75.5603 71.2489 73.002C58.2746 70.4437 48.4069 65.6925 46.7622 74.0984C45.1176 82.5043 57.1782 76.1085 70.1525 78.8496C83.1268 81.5906 91.5327 92.0066 93.36 83.418Z" fill="#F7B7A1"/>
<path d="M111.268 63.865C103.958 53.9973 108.527 54.7282 107.43 44.8604C106.334 34.9927 95.7351 26.5868 95.7351 26.5868C95.7351 26.5868 105.968 18.1809 98.6589 12.1506C91.3494 5.93757 84.0399 7.5822 84.0399 7.5822C84.0399 7.5822 77.2787 -4.84388 64.4872 2.64831C53.523 9.04409 59.3705 17.6327 63.7562 21.4702C59.9187 22.9321 51.8783 26.5868 48.2236 32.9826C43.2897 41.5712 47.4927 43.3986 37.0767 49.6116C26.6607 56.0074 47.6754 66.0579 42.0106 73.7328C36.3457 81.4077 40.1832 85.7934 40.1832 85.7934C40.1832 85.7934 38.904 79.3976 44.7516 76.6566C50.5992 73.9155 52.792 69.3471 47.6754 59.8448C42.7415 50.5253 77.6442 59.1139 87.1465 39.9266C88.4256 61.3067 105.42 62.4031 97.197 69.1644C88.9738 75.9256 89.1566 81.0423 93.5422 85.7934C97.9279 90.5445 94.2732 96.0266 94.2732 96.0266C94.2732 96.0266 99.5725 93.4683 97.197 84.1488C95.1869 74.8292 118.577 73.7328 111.268 63.865Z" fill="#081E29"/>
<path d="M56.9941 62.7677C56.9941 62.7677 62.1108 64.4123 67.4101 61.123" stroke="#081E29" stroke-width="2.06821" stroke-miterlimit="10" stroke-linecap="round" stroke-linejoin="round"/>
<path d="M87.6943 68.9801C87.6943 68.9801 82.395 68.4319 78.7402 63.498" stroke="#081E29" stroke-width="2.06821" stroke-miterlimit="10" stroke-linecap="round" stroke-linejoin="round"/>
<path d="M79.653 73.0007C79.4702 74.0971 80.2012 75.1936 81.2976 75.559C82.394 75.7418 83.4904 75.0108 83.8559 73.9144C84.0387 72.818 83.3077 71.7216 82.2113 71.3561C81.1149 71.1734 79.8357 71.9043 79.653 73.0007Z" fill="#081E29"/>
<path d="M58.6393 68.7976C58.4566 69.894 59.1875 70.9905 60.2839 71.3559C61.3804 71.5387 62.4768 70.8077 62.8423 69.7113C63.025 68.6149 62.294 67.5185 61.1976 67.153C60.1012 66.9702 59.0048 67.7012 58.6393 68.7976Z" fill="#081E29"/>
<path d="M72.3456 67.1543C72.3456 67.1543 64.8534 78.6667 69.7873 79.5804" stroke="#081E29" stroke-width="1.03411" stroke-miterlimit="10" stroke-linecap="round" stroke-linejoin="round"/>
<path d="M66.3145 87.8027C66.3145 87.8027 71.0656 88.5337 73.4412 92.1884" stroke="#081E29" stroke-width="1.03411" stroke-miterlimit="10" stroke-linecap="round" stroke-linejoin="round"/>
<path d="M69.2383 88.7168C69.2383 88.7168 71.2484 95.6608 73.9894 92.006L69.2383 88.7168Z" fill="#081E29"/>
<path d="M67.4111 89.6306L58.2743 89.4479C56.8124 86.5241 53.5231 84.8795 50.0511 85.6104C48.9547 85.7931 48.041 86.3414 47.3101 86.8896C46.0309 85.7931 44.3863 85.4277 42.5589 85.7931C39.8179 86.3413 38.1732 88.8997 38.356 91.458C37.9905 91.458 37.625 91.458 37.2596 91.6407C33.4221 92.5544 30.8638 96.3919 31.7775 100.047C32.6911 103.884 36.5286 106.077 40.3661 105.163C41.097 108.635 44.7518 110.828 48.4065 109.914C50.7821 109.366 52.6094 107.722 53.3404 105.529C53.8886 105.529 54.6195 105.529 55.1677 105.346C58.0915 104.615 59.9189 101.874 59.1879 99.1329C59.1879 98.7674 59.0052 98.402 58.8225 98.0365L68.873 92.9199L67.4111 89.6306Z" fill="url(#paint0_linear_7582_6949)"/>
<path d="M53.1559 197.445L67.7748 165.283C67.7748 165.283 72.8915 163.456 74.7188 155.233C76.5462 147.01 79.8354 143.903 83.1247 141.71C85.3175 140.431 82.942 136.411 74.3534 147.192C78.739 137.325 84.2211 137.142 83.8557 135.68C83.4902 134.218 78.3736 134.584 72.8915 142.989C76.5462 134.218 83.1247 132.573 82.5765 130.929C81.8456 128.553 72.3433 133.67 69.6022 142.989C70.5159 133.304 78.0081 131.112 77.4599 128.553C76.9117 125.995 66.4957 133.487 64.3029 147.192C63.0237 142.441 67.7748 137.325 65.9475 136.045C64.1201 134.766 56.9934 147.375 60.4654 161.811C53.1559 172.958 40.1816 189.222 40.1816 189.222L53.1559 197.445Z" fill="#F9C4A0"/>
<path d="M13.3199 227.78C13.3199 227.78 -1.11626 219.374 7.28962 208.41C15.1473 197.994 18.6193 178.076 41.6441 178.989C43.4714 178.989 45.2988 179.72 46.578 180.634C50.2327 183.375 54.9838 185.202 58.0904 185.933C60.1005 186.482 61.7451 187.761 62.1105 189.04C63.3897 192.512 64.4861 199.639 58.8213 207.862C50.7809 219.74 53.7047 236.369 37.0757 234.724C20.4466 233.262 13.3199 227.78 13.3199 227.78Z" fill="#FF98A8"/>
<path d="M88.9736 100.23C88.9736 100.23 77.6439 111.56 62.1113 107.54" stroke="#081E29" stroke-width="1.03411" stroke-miterlimit="10" stroke-linecap="round" stroke-linejoin="round"/>
<defs>
<linearGradient id="paint0_linear_7582_6949" x1="31.9059" y1="97.741" x2="69.2896" y2="97.741" gradientUnits="userSpaceOnUse">
<stop stop-color="#FFCBD3" stop-opacity="0.72"/>
<stop offset="0.9874" stop-color="#FF98A8" stop-opacity="0.1"/>
</linearGradient>
</defs>
</svg>
