<svg width="151" height="207" viewBox="0 0 151 207" fill="none" xmlns="http://www.w3.org/2000/svg">
<path d="M0.05117 198.37C0.599379 188.502 8.45705 182.654 12.4772 174.248C18.1421 162.371 8.09157 152.32 21.0659 140.625C34.0401 129.112 27.4616 123.813 35.1366 114.494C42.9942 105.174 58.8923 107.915 58.8923 107.915H91.4194C91.4194 107.915 107.317 105.174 115.175 114.494C123.033 123.813 116.272 129.112 129.246 140.625C142.22 152.137 132.17 162.188 137.834 174.248C140.21 179.182 144.047 183.02 146.789 187.771C159.946 209.151 139.845 236.013 116.82 236.013C116.82 236.013 33.3092 236.013 33.1265 236.013C17.5939 241.313 6.44695 239.303 8.63978 225.597C10.4671 215.73 -0.497039 208.055 0.05117 198.37Z" fill="#FF647C"/>
<path d="M75.3392 91.6521L91.0546 89.0938C91.0546 89.0938 91.0546 109.743 91.0546 124.179C91.0546 138.067 76.4357 141.356 75.3392 141.722C74.2428 141.539 59.8066 138.25 59.8066 124.362C59.8066 109.926 59.8066 89.2765 59.8066 89.2765L75.3392 91.6521Z" fill="#F9D3B7"/>
<path d="M75.3384 69.7224L59.623 67.1641C59.623 67.1641 59.623 87.8133 59.623 102.249C59.623 109.193 63.2778 113.579 66.9325 116.137C70.5872 118.696 74.9729 119.792 79.5413 119.609C83.5615 119.427 88.8609 117.599 90.5055 113.945C91.6019 111.386 90.871 107.366 90.871 102.432C90.871 87.996 90.871 67.3468 90.871 67.3468L75.3384 69.7224Z" fill="#F7B7A1"/>
<path d="M104.577 62.2312C104.577 62.2312 104.76 59.4901 110.242 58.3937C115.724 57.2973 117.734 76.1192 107.684 78.1293C97.6331 80.1394 98.7295 66.2514 104.577 62.2312Z" fill="#F4C19F"/>
<path d="M53.5937 72.4636C53.5937 72.4636 52.3145 69.9053 46.8324 71.0017C41.3503 72.0981 46.8324 90.189 56.7002 88.1789C66.7507 86.3515 60.3549 73.9255 53.5937 72.4636Z" fill="#F4C19F"/>
<path d="M86.8509 108.463C102.018 105.356 111.886 90.5548 108.779 75.5704L104.576 54.7384C101.47 39.5713 86.6681 29.7035 71.6838 32.8101C56.5166 35.9166 46.6489 50.7182 49.7554 65.7026L53.9583 86.5346C56.8821 101.519 71.6838 111.569 86.8509 108.463Z" fill="#F9D3B7"/>
<path d="M57.6132 84.1582C55.9686 75.7523 66.9328 76.3005 79.7243 73.7422C92.6986 71.1839 102.566 66.4328 104.211 74.8386C105.856 83.2445 93.795 76.8487 80.8208 79.5898C68.2119 82.1481 59.4406 92.7468 57.6132 84.1582Z" fill="#F7B7A1"/>
<path d="M39.7051 64.4236C47.0145 54.5559 42.4461 55.2868 43.5425 45.419C44.639 35.5513 55.2377 27.1454 55.2377 27.1454C55.2377 27.1454 45.0044 18.7395 52.3139 12.7092C59.6233 6.49616 66.9328 8.14079 66.9328 8.14079C66.9328 8.14079 73.6941 -4.28529 86.4856 3.20691C97.4498 9.60268 91.6022 18.1913 87.2166 22.0288C91.054 23.4907 99.0944 27.1454 102.749 33.5412C107.683 42.1298 103.48 43.9571 113.896 50.1702C124.312 56.566 103.297 66.6165 108.962 74.2914C114.627 81.9663 110.79 86.352 110.79 86.352C110.79 86.352 112.069 79.9562 106.221 77.2152C100.374 74.4741 98.1807 69.9057 103.297 60.4034C108.231 51.0839 73.3286 59.6725 63.8263 40.4851C62.5471 61.8653 45.5526 62.9617 53.7758 69.723C61.9989 76.4842 61.8162 81.6008 57.4305 86.352C53.0448 91.1031 56.6996 96.5852 56.6996 96.5852C56.6996 96.5852 51.4002 94.0269 53.7758 84.7074C55.7859 75.5705 32.3956 74.4741 39.7051 64.4236Z" fill="#081E29"/>
<path d="M93.9765 63.5099C93.9765 63.5099 88.8599 65.1545 83.5605 61.8652" stroke="#081E29" stroke-width="2.06821" stroke-miterlimit="10" stroke-linecap="round" stroke-linejoin="round"/>
<path d="M63.2773 69.7223C63.2773 69.7223 68.5767 69.1741 72.2314 64.2402" stroke="#081E29" stroke-width="2.06821" stroke-miterlimit="10" stroke-linecap="round" stroke-linejoin="round"/>
<path d="M71.3169 73.7429C71.4996 74.8393 70.7686 75.9358 69.6722 76.3012C68.5758 76.484 67.4794 75.753 67.1139 74.6566C66.9312 73.5602 67.6621 72.4638 68.7585 72.0983C70.0377 71.9156 71.1341 72.6465 71.3169 73.7429Z" fill="#081E29"/>
<path d="M92.3325 69.5398C92.5152 70.6362 91.7843 71.7326 90.6879 72.0981C89.5914 72.2808 88.495 71.5499 88.1295 70.4535C87.9468 69.3571 88.6778 68.2606 89.7742 67.8952C90.8706 67.7124 91.967 68.4434 92.3325 69.5398Z" fill="#081E29"/>
<path d="M80.4562 89.6412C80.2734 88.9103 80.2734 88.1793 80.2734 87.4484C80.2734 84.7074 83.5627 83.9764 84.6591 86.5347C85.0246 87.2657 85.2073 87.8139 85.3901 88.5448C85.7555 89.6412 85.7555 90.7377 85.5728 91.4686C85.2073 93.6614 82.649 94.2097 81.3699 92.3823C81.0044 91.6513 80.6389 90.7377 80.4562 89.6412Z" fill="#081E29"/>
<path d="M78.627 67.8965C78.627 67.8965 86.1191 79.4089 81.1853 80.3226" stroke="#081E29" stroke-width="1.03411" stroke-miterlimit="10" stroke-linecap="round" stroke-linejoin="round"/>
<path d="M98.181 154.695L92.1507 119.792C92.1507 119.792 87.5823 116.686 87.9478 108.28C88.3133 99.8738 85.7549 96.0364 83.3794 93.1126C81.552 91.2852 84.8413 87.996 90.5061 100.605C88.6787 90.0061 83.5621 88.3614 84.1103 87.0823C84.8413 85.8031 89.7751 87.4478 92.8817 96.9501C91.6025 87.4478 85.7549 84.3412 86.6686 82.8793C87.9478 80.8692 95.8054 88.1787 95.9882 97.8637C97.6328 88.1787 90.8716 84.1585 91.968 81.9657C93.0644 79.7728 101.288 89.6406 99.8256 103.346C102.201 98.9602 99.0947 92.9299 101.105 92.1989C103.115 91.468 106.952 105.356 99.8256 118.33C104.029 130.939 112.434 150.126 112.434 150.126L98.181 154.695Z" fill="#F9C4A0"/>
<path d="M128.88 233.638C128.88 233.638 144.961 225.963 139.662 204.034C134.728 183.02 136.373 148.3 113.896 139.894C112.251 139.163 110.241 139.528 108.779 140.625C104.576 143.731 99.4598 144.462 96.3533 144.645C94.1605 144.645 92.3331 146.107 91.6022 148.117C89.5921 153.416 86.6683 164.746 89.9575 181.01C94.7087 204.4 87.582 231.079 104.211 235.465C120.657 239.851 128.88 233.638 128.88 233.638Z" fill="#FF98A8"/>
<path d="M61.0859 100.24C61.0859 100.24 71.5019 112.301 86.8518 108.463" stroke="#081E29" stroke-width="1.03411" stroke-miterlimit="10" stroke-linecap="round" stroke-linejoin="round"/>
</svg>
