<svg width="68" height="86" viewBox="0 0 68 86" fill="none" xmlns="http://www.w3.org/2000/svg">
<path d="M32.8758 66.1332C24.0758 66.5332 23.1758 59.5332 23.1758 56.4332C25.9758 55.5332 29.0758 55.0332 32.6758 55.0332C36.0758 55.0332 39.1758 55.5332 41.9758 56.3332C42.2758 59.2332 41.6758 65.7332 32.8758 66.1332Z" fill="#FFCBD3"/>
<path d="M23.1766 56.3324C23.1766 59.4324 24.0766 66.4324 32.8766 66.0324C41.6766 65.6324 42.1766 59.1324 41.9766 56.2324C62.1766 62.2324 67.1766 86.9324 67.1766 86.9324H0.976562C0.976562 86.9324 3.77656 62.5324 23.1766 56.3324Z" fill="#FF647C"/>
<path d="M51.1763 15.332C51.1763 15.332 57.5763 21.932 51.1763 28.632C44.7763 35.332 13.2763 28.332 13.2763 28.332C13.2763 28.332 8.57632 19.132 16.0763 12.632C23.6763 6.13205 41.1763 8.13205 41.3763 8.13205C41.4763 8.13205 51.1763 15.332 51.1763 15.332Z" fill="#323C66"/>
<path d="M52.9773 36.232C55.8492 36.232 58.1773 33.9039 58.1773 31.032C58.1773 28.1602 55.8492 25.832 52.9773 25.832C50.1055 25.832 47.7773 28.1602 47.7773 31.032C47.7773 33.9039 50.1055 36.232 52.9773 36.232Z" fill="#FBDDC3"/>
<path d="M14.3758 36.232C17.2477 36.232 19.5758 33.9039 19.5758 31.032C19.5758 28.1602 17.2477 25.832 14.3758 25.832C11.5039 25.832 9.17578 28.1602 9.17578 31.032C9.17578 33.9039 11.5039 36.232 14.3758 36.232Z" fill="#FBDDC3"/>
<path d="M51.5773 26.1317C51.7773 28.9317 51.5773 29.7317 51.2773 32.5317C50.6773 38.0317 48.0773 42.7317 43.0773 45.4317C38.0773 48.0317 31.3773 49.0317 26.0773 46.8317C21.9773 45.1317 18.7773 42.1317 17.1773 38.1317C15.3773 33.5317 15.2773 27.6317 15.5773 22.6317C16.4773 4.13166 31.5773 4.43166 31.5773 4.43166C31.5773 4.43166 51.6773 2.73166 51.5773 26.1317Z" fill="#FBDDC3"/>
<path d="M38.3766 52.2332L38.9766 59.6332C38.9766 59.6332 38.6766 63.3332 32.6766 64.0332C26.6766 64.7332 25.9766 58.4332 25.9766 58.4332L26.9766 45.5332C30.5766 50.5332 35.3766 51.8332 38.3766 52.2332Z" fill="#FBDDC3"/>
<path d="M26.9766 48.8324L27.8766 37.2324L36.8766 38.4324L38.3766 55.3324C35.3766 55.1324 30.5766 53.7324 26.9766 48.8324Z" fill="#F6BB86"/>
<path d="M40.877 25.4328C40.877 26.4328 41.277 27.2328 41.777 27.2328C42.277 27.2328 42.677 26.4328 42.677 25.4328C42.677 24.4328 42.277 23.6328 41.777 23.6328C41.377 23.6328 40.877 24.4328 40.877 25.4328Z" fill="#323C66"/>
<path d="M24.777 27.5316C25.274 27.5316 25.677 26.7257 25.677 25.7316C25.677 24.7375 25.274 23.9316 24.777 23.9316C24.2799 23.9316 23.877 24.7375 23.877 25.7316C23.877 26.7257 24.2799 27.5316 24.777 27.5316Z" fill="#323C66"/>
<path d="M44.4756 19.0326C45.2756 20.3326 46.4756 21.3326 47.9756 21.6326C50.0756 22.1326 52.7756 22.1326 53.8756 19.4326C55.7756 14.6326 52.9756 11.2326 52.9756 11.2326C52.9756 11.2326 59.2756 6.03258 54.5756 2.03258C49.8756 -2.06742 46.7756 2.73257 46.7756 2.73257C46.7756 2.73257 46.1756 -1.56742 41.8756 -1.96742C37.4756 -2.26742 35.9756 2.03258 35.9756 2.03258C35.9756 2.03258 33.4756 -2.16742 28.3756 -1.16742C23.2756 -0.167425 24.1756 5.13257 24.1756 5.13257C24.1756 5.13257 22.4756 3.93258 19.7756 4.53258C15.4756 5.43258 13.3756 10.3326 14.3756 15.2326C14.9756 18.4326 14.2756 21.4326 13.6756 23.1326C13.2756 24.2326 13.8756 25.1326 14.3756 25.0326C15.5756 24.8326 15.6756 13.5326 20.0756 13.8326C20.2756 16.3326 21.3756 20.3326 24.7756 19.4326C25.5756 19.2326 26.2756 18.6326 26.7756 18.0326C27.6756 16.9326 28.0756 15.6326 29.0756 14.6326C29.6756 13.9326 30.4756 13.4326 31.2756 13.0326C33.2756 12.1326 35.4756 12.2326 37.3756 13.0326C40.8756 14.3326 43.1756 16.7326 44.4756 19.0326Z" fill="#323C66"/>
<path d="M20.6781 43.8332C25.6781 48.1332 35.3781 52.4332 46.0781 43.8332C43.3781 40.6332 44.5781 36.4332 47.7781 31.7332C39.7781 29.1332 27.5781 29.1332 19.5781 31.7332C22.9781 36.1332 24.1781 40.3332 20.6781 43.8332Z" fill="#FF647C"/>
<path d="M20.5773 32.1328C17.9773 30.5328 16.0773 28.3328 14.7773 26.1328L20.5773 32.1328Z" fill="#EB7B55"/>
<path d="M46.377 32.5328C48.677 30.9328 50.277 28.7328 51.677 26.1328L46.377 32.5328Z" fill="#EB7B55"/>
<path d="M38.2773 22.6319C38.4773 22.0319 38.8773 21.6319 39.3773 21.2319C39.8773 20.8319 40.4773 20.6319 41.0773 20.5319C41.6773 20.4319 42.3773 20.6319 42.9773 20.9319C43.2773 21.0319 43.4773 21.3319 43.6773 21.5319C43.8773 21.7319 44.0773 22.0319 44.1773 22.2319C43.5773 22.0319 43.0773 21.9319 42.5773 21.8319C42.0773 21.7319 41.6773 21.7319 41.1773 21.7319C40.2773 21.7319 39.3773 22.1319 38.2773 22.6319Z" fill="#323C66"/>
<path d="M28.0758 22.1332C27.0758 21.3332 26.0758 21.0332 25.0758 21.1332C24.5758 21.1332 24.0758 21.2332 23.4758 21.3332C23.1758 21.4332 22.8758 21.4332 22.5758 21.5332C22.2758 21.6332 21.9758 21.6332 21.6758 21.7332C21.8758 21.4332 22.0758 21.2332 22.2758 21.0332C22.4758 20.8332 22.7758 20.6332 23.0758 20.5332C23.6758 20.2332 24.2758 20.0332 24.9758 20.0332C25.6758 20.0332 26.3758 20.2332 26.9758 20.6332C27.5758 20.9332 27.9758 21.5332 28.0758 22.1332Z" fill="#323C66"/>
</svg>
