<svg width="79" height="86" viewBox="0 0 79 86" fill="none" xmlns="http://www.w3.org/2000/svg">
<path d="M39.3172 68.4262C30.5172 68.8262 29.6172 61.8262 29.6172 58.7262C32.4172 57.8262 35.5172 57.3262 39.1172 57.3262C42.5172 57.3262 45.6172 57.8262 48.4172 58.6262C48.7172 61.5262 48.2172 68.1262 39.3172 68.4262Z" fill="#FF98A8"/>
<path d="M29.6164 58.727C29.6164 61.827 30.5164 68.827 39.3164 68.427C48.1164 68.027 48.6164 61.527 48.4164 58.627C68.6164 64.627 73.6164 89.327 73.6164 89.327H7.31641C7.41641 89.327 10.2164 64.827 29.6164 58.727Z" fill="#FF647C"/>
<path d="M57.6158 17.7266C57.6158 17.7266 64.0158 24.3266 57.6158 31.0266C51.2158 37.7266 19.7158 30.7266 19.7158 30.7266C19.7158 30.7266 15.0158 21.5266 22.5158 15.0266C30.0158 8.52658 47.5158 10.5266 47.7158 10.5266C47.9158 10.5266 57.6158 17.7266 57.6158 17.7266Z" fill="#323C66"/>
<path d="M59.4168 38.6266C62.2887 38.6266 64.6168 36.2984 64.6168 33.4266C64.6168 30.5547 62.2887 28.2266 59.4168 28.2266C56.5449 28.2266 54.2168 30.5547 54.2168 33.4266C54.2168 36.2984 56.5449 38.6266 59.4168 38.6266Z" fill="#FBDDC3"/>
<path d="M20.8172 38.6266C23.6891 38.6266 26.0172 36.2984 26.0172 33.4266C26.0172 30.5547 23.6891 28.2266 20.8172 28.2266C17.9453 28.2266 15.6172 30.5547 15.6172 33.4266C15.6172 36.2984 17.9453 38.6266 20.8172 38.6266Z" fill="#FBDDC3"/>
<path d="M44.816 54.6277L45.416 62.0277C45.416 62.0277 45.116 65.7277 39.116 66.4277C33.116 67.1277 32.416 60.8277 32.416 60.8277L33.416 47.9277C37.016 52.8277 41.816 54.2277 44.816 54.6277Z" fill="#FBDDC3"/>
<path d="M58.0168 28.5262C58.2168 31.3262 58.0168 32.1262 57.7168 34.9262C57.1168 40.4262 54.5168 45.1262 49.5168 47.8262C44.5168 50.4262 37.8168 51.4262 32.5168 49.2262C28.4168 47.5262 25.2168 44.5262 23.6168 40.5262C21.8168 35.9262 21.7168 30.0262 22.0168 25.0262C22.9168 6.52619 38.0168 6.82619 38.0168 6.82619C38.0168 6.82619 58.1168 5.12619 58.0168 28.5262Z" fill="#FBDDC3"/>
<path d="M50.917 21.4271C51.717 22.7271 52.917 23.7271 54.417 24.0271C56.517 24.5271 59.217 24.5271 60.317 21.8271C62.217 17.0271 59.417 13.6271 59.417 13.6271C59.417 13.6271 65.717 8.42711 61.017 4.42711C56.317 0.327107 53.217 5.12711 53.217 5.12711C53.217 5.12711 52.617 0.827107 48.317 0.427107C43.917 0.127107 42.417 4.42711 42.417 4.42711C42.417 4.42711 39.917 0.227107 34.817 1.22711C29.717 2.22711 30.617 7.52711 30.617 7.52711C30.617 7.52711 28.917 6.32711 26.217 6.92711C21.917 7.82711 19.817 12.7271 20.817 17.6271C21.417 20.8271 20.717 23.8271 20.117 25.5271C19.717 26.6271 20.317 27.5271 20.817 27.4271C22.017 27.2271 22.117 15.9271 26.517 16.2271C26.717 18.7271 27.817 22.7271 31.217 21.8271C32.017 21.6271 32.717 21.0271 33.217 20.4271C34.117 19.3271 34.517 18.0271 35.517 17.0271C36.117 16.3271 36.917 15.8271 37.717 15.4271C39.717 14.5271 41.917 14.6271 43.817 15.4271C47.317 16.7271 49.617 19.1271 50.917 21.4271Z" fill="#323C66"/>
<path d="M78.9515 85.2126C78.9515 85.2126 61.9156 57.2273 56.0156 57.0273L54.5156 65.6273C54.5156 65.6273 67.5515 84.5126 66.6515 88.6126C65.7515 92.7126 78.9515 85.2126 78.9515 85.2126Z" fill="#323C66"/>
<path d="M36.4158 47.0273C36.4158 47.0273 4.93516 67.8977 0.535156 83.9977L3.33516 87.7977L11.1352 88.9977C11.1352 88.9977 33.4157 56.9273 39.6157 56.4273C45.9157 55.9273 36.4158 47.0273 36.4158 47.0273Z" fill="#323C66"/>
<path d="M47.7152 61.8282C48.1152 62.1282 50.9152 62.9282 52.3152 63.0282C51.4152 62.9282 50.8152 62.9282 49.9152 62.8282C49.0152 62.7282 47.4152 62.2282 47.3152 63.0282C47.2152 63.8282 48.0152 64.8282 49.4152 65.5282C51.0152 66.4282 52.4152 66.6282 53.1152 66.7282C53.8152 66.8282 55.0152 66.6282 55.5152 65.3282C56.4152 62.9282 57.0152 60.3282 57.0152 57.8282C57.1152 55.0282 56.0152 54.8282 54.8152 54.1282C53.3152 53.2282 50.0152 54.2282 49.7152 55.5282C49.5152 56.8282 52.0152 55.7282 53.7152 56.8282C52.4152 56.0282 48.6152 56.6282 48.0152 58.1282C47.7152 58.9282 48.5152 59.0282 48.9152 59.0282C50.2152 59.1282 51.6152 58.8282 52.8152 59.5282C51.7152 59.3282 48.8152 59.2282 47.8152 59.8282C46.8152 60.5282 47.2152 61.5282 47.7152 61.8282Z" fill="#F6BB86"/>
<path d="M43.8063 46.6375C43.3099 46.5777 40.485 47.2849 39.2225 47.8983C40.052 47.5349 40.5716 47.2349 41.401 46.8715C42.2304 46.5081 43.8661 46.1411 43.5527 45.3983C43.2393 44.6555 42.0464 44.1894 40.484 44.2832C38.6484 44.3038 37.3359 44.8306 36.6797 45.094C36.0235 45.3574 35.0843 46.1306 35.3013 47.5064C35.7218 50.0349 36.5022 52.5865 37.7522 54.7516C39.0656 57.2265 40.1182 56.8497 41.5075 56.8559C43.2565 56.8853 45.6144 54.3693 45.2242 53.0935C44.7474 51.8676 43.1324 54.0703 41.1101 53.9676C42.6359 54.0105 45.6268 51.5908 45.3965 49.9918C45.2563 49.149 44.5134 49.4624 44.167 49.6624C42.9912 50.2258 41.9288 51.1856 40.5395 51.1794C41.5922 50.8026 44.1536 49.4392 44.7197 48.4196C45.2357 47.3133 44.3893 46.6473 43.8063 46.6375Z" fill="#F6BB86"/>
<path d="M29.516 30.0266C29.516 29.9266 29.616 29.7266 29.816 29.7266C29.916 29.6266 30.116 29.6266 30.116 29.5266C30.216 29.3266 30.016 29.2266 29.916 29.0266C29.716 28.6266 29.816 28.1266 30.116 27.9266C30.516 27.6266 31.016 27.7266 31.516 27.6266C32.116 27.4266 32.716 27.2266 33.216 27.0266C33.716 26.8266 34.216 26.5266 34.616 26.1266C34.816 25.9266 35.116 25.5266 35.416 25.4266C36.016 25.3266 35.616 26.1266 35.716 26.3266C35.816 26.5266 35.816 26.7266 35.816 26.8266C35.816 27.0266 35.716 27.2266 35.616 27.4266C34.916 28.5266 33.916 29.3266 32.816 29.9266C32.116 30.2266 31.516 30.5266 30.816 30.7266C30.516 30.8266 30.316 30.8266 30.016 30.8266C29.716 30.7266 29.516 30.6266 29.416 30.3266C29.416 30.2266 29.516 30.1266 29.516 30.0266Z" fill="#323C66"/>
<path d="M52.5164 29.9262C52.5164 29.9262 52.5164 30.0262 52.5164 29.9262C52.3164 30.2262 52.1164 30.3262 51.9164 30.4262C51.1164 30.6262 50.2164 30.2262 49.5164 29.8262C48.6164 29.3262 47.8164 28.5262 47.2164 27.7262C47.0164 27.4262 46.8164 27.1262 46.8164 26.8262C46.8164 26.6262 46.9164 26.4262 46.9164 26.2262C46.9164 26.1262 46.8164 26.0262 46.8164 25.8262C46.8164 25.1262 47.4164 25.7262 47.6164 25.9262C47.9164 26.2262 48.2164 26.4262 48.6164 26.6262C49.1164 26.9262 49.6164 27.1262 50.2164 27.2262C50.8164 27.3262 51.5164 27.2262 51.9164 27.6262C52.1164 27.8262 52.2164 28.0262 52.2164 28.3262C52.2164 28.5262 51.9164 28.8262 52.0164 29.0262C52.1164 29.2262 52.3164 29.2262 52.5164 29.4262C52.6164 29.5262 52.6164 29.7262 52.5164 29.9262Z" fill="#323C66"/>
<path d="M30.616 34.1268C30.916 33.9268 31.316 33.4268 31.616 33.3268C32.216 33.0268 32.516 32.8268 33.216 32.6268C33.816 32.4268 34.716 32.3268 35.316 32.6268C35.916 32.9268 37.016 33.8268 36.816 34.4268C36.716 34.6268 36.416 34.5268 36.416 34.3268C36.516 33.7268 35.316 33.4268 34.816 33.3268C34.316 33.2268 33.516 33.3268 33.016 33.5268C32.516 33.7268 31.916 34.2268 31.516 34.4268C31.116 34.7268 30.616 35.1268 30.116 35.1268C30.016 35.1268 29.916 35.0268 29.916 34.8268C30.116 34.5268 30.316 34.3268 30.616 34.1268Z" fill="#323C66"/>
<path d="M45.5164 34.3261C45.8164 34.1261 46.2164 33.6261 46.5164 33.5261C47.1164 33.2261 47.4164 33.0261 48.1164 32.8261C48.7164 32.6261 49.6164 32.5261 50.2164 32.8261C50.8164 33.1261 51.9164 34.0261 51.7164 34.6261C51.6164 34.8261 51.3164 34.7261 51.3164 34.5261C51.4164 33.9261 50.2164 33.6261 49.7164 33.5261C49.2164 33.4261 48.4164 33.5261 47.9164 33.7261C47.4164 33.9261 46.8164 34.4261 46.4164 34.6261C46.0164 34.9261 45.5164 35.3261 45.0164 35.3261C44.9164 35.3261 44.8164 35.2261 44.8164 35.0261C44.9164 34.7261 45.2164 34.5261 45.5164 34.3261Z" fill="#323C66"/>
</svg>
