<svg width="153" height="204" viewBox="0 0 153 204" fill="none" xmlns="http://www.w3.org/2000/svg">
<path d="M152.012 195.315C151.464 185.447 143.606 179.6 139.586 171.194C133.921 159.316 143.971 149.265 130.997 137.57C118.023 126.058 124.601 120.758 116.926 111.439C109.069 102.119 93.1706 104.86 93.1706 104.86H60.4608C60.4608 104.86 44.5627 102.119 36.705 111.439C28.8474 120.758 35.6086 126.058 22.6343 137.57C9.66006 149.083 19.7106 159.133 14.0457 171.194C11.6701 176.128 7.83268 179.965 5.09163 184.716C-8.06539 206.096 12.0356 232.959 35.0604 232.959C35.0604 232.959 118.571 232.959 118.754 232.959C127.891 232.959 136.845 229.121 143.24 222.543C150.002 215.233 152.56 205 152.012 195.315Z" fill="#FF647C"/>
<path d="M76.5415 88.5974L60.8262 86.0391C60.8262 86.0391 60.8262 106.688 60.8262 121.124C60.8262 135.012 75.4451 138.302 76.5415 138.667C77.6379 138.484 92.0741 135.195 92.0741 121.307C92.0741 106.871 92.0741 86.2218 92.0741 86.2218L76.5415 88.5974Z" fill="#F9D3B7"/>
<path d="M76.5415 68.861L60.8262 66.3027C60.8262 66.3027 60.8262 86.952 60.8262 101.388C60.8262 104.86 61.7399 107.784 63.2018 110.159C69.0493 120.21 84.0337 120.21 89.8813 110.159C91.3432 107.784 92.2569 104.86 92.2569 101.388C92.2569 86.952 92.2569 66.3027 92.2569 66.3027L76.5415 68.861Z" fill="#F7B7A1"/>
<path d="M50.2284 65.9383C50.2284 65.9383 49.4974 63.1973 43.8326 63.1973C38.1678 63.1973 39.9951 82.0191 50.2284 82.0191C60.2789 82.2019 56.4414 68.6794 50.2284 65.9383Z" fill="#F4C19F"/>
<path d="M102.125 65.9383C102.125 65.9383 102.856 63.1973 108.521 63.1973C114.186 63.1973 112.359 82.0191 102.125 82.0191C91.8922 82.2019 95.7296 68.6794 102.125 65.9383Z" fill="#F4C19F"/>
<path d="M76.5407 107.785C61.1909 107.785 48.582 95.1759 48.582 79.826V58.6286C48.582 43.2787 61.1909 30.6699 76.5407 30.6699C91.8906 30.6699 104.499 43.2787 104.499 58.6286V79.826C104.499 95.1759 91.8906 107.785 76.5407 107.785Z" fill="url(#paint0_linear_7582_6863)"/>
<path d="M100.297 78.3633C100.297 69.7746 89.6979 72.5157 76.5409 72.5157C63.3839 72.5157 52.7852 69.7746 52.7852 78.3633C52.7852 86.9519 63.3839 79.2769 76.5409 79.2769C89.6979 79.2769 100.297 86.9519 100.297 78.3633Z" fill="#F7B7A1"/>
<path d="M114.186 55.522C105.049 47.2989 109.8 47.1161 106.693 37.6138C103.587 28.1115 91.709 22.0812 91.709 22.0812C91.709 22.0812 100.115 11.848 91.709 7.27957C83.3031 2.71116 76.5419 5.63494 76.5419 5.63494C76.5419 5.63494 67.405 -5.14651 56.4408 4.72126C46.9386 13.3099 54.4307 20.2539 59.3646 23.3604C55.8926 25.5532 48.5832 30.8526 46.3903 37.7966C43.2838 47.2989 47.8522 48.0298 38.7154 56.4357C29.5786 64.6588 52.4206 70.5064 48.4004 79.095C44.3802 87.6836 48.9486 91.1556 48.9486 91.1556C48.9486 91.1556 46.3903 85.1253 51.6897 81.2878C56.8063 77.4504 58.0855 72.5165 51.3242 64.2934C44.563 56.0702 80.5621 57.7148 86.0441 36.8829C91.5262 57.7148 108.338 55.3393 101.577 63.5624C94.8155 71.7855 95.9119 76.7194 101.211 80.5569C106.328 84.3944 103.952 90.4247 103.952 90.4247C103.952 90.4247 108.521 86.9527 104.501 78.3641C100.48 69.7754 123.14 63.7451 114.186 55.522Z" fill="#081E29"/>
<path d="M60.8262 65.2075C60.8262 65.2075 66.1255 65.7557 70.6939 61.5527" stroke="#081E29" stroke-width="2.06821" stroke-miterlimit="10" stroke-linecap="round" stroke-linejoin="round"/>
<path d="M92.0748 65.2075C92.0748 65.2075 86.7754 65.7557 82.207 61.5527" stroke="#081E29" stroke-width="2.06821" stroke-miterlimit="10" stroke-linecap="round" stroke-linejoin="round"/>
<path d="M76.5416 66.4863C76.5416 66.4863 71.425 79.2779 76.5416 79.2779" stroke="#081E29" stroke-width="1.03411" stroke-miterlimit="10" stroke-linecap="round" stroke-linejoin="round"/>
<path d="M67.7704 70.3237C67.7704 71.4201 66.8568 72.5165 65.5776 72.5165C64.4812 72.5165 63.3848 71.6029 63.3848 70.3237C63.3848 69.2273 64.2985 68.1309 65.5776 68.1309C66.8568 68.1309 67.7704 69.0445 67.7704 70.3237Z" fill="#081E29"/>
<path d="M87.1401 72.5165C88.3512 72.5165 89.3329 71.5348 89.3329 70.3237C89.3329 69.1126 88.3512 68.1309 87.1401 68.1309C85.929 68.1309 84.9473 69.1126 84.9473 70.3237C84.9473 71.5348 85.929 72.5165 87.1401 72.5165Z" fill="#081E29"/>
<path d="M71.791 85.6737C71.791 85.6737 76.3594 84.9427 81.1106 86.7701" stroke="#081E29" stroke-width="1.03411" stroke-miterlimit="10" stroke-linecap="round" stroke-linejoin="round"/>
<path d="M100.115 70.8727C101.76 70.8727 103.039 69.5936 103.039 67.9489V35.4218C103.039 33.7772 101.76 32.498 100.115 32.498C98.4705 32.498 97.1914 33.7772 97.1914 35.4218V67.9489C97.1914 69.4108 98.4705 70.8727 100.115 70.8727Z" fill="#F7EEEA"/>
<path d="M95.1816 68.4964C95.1816 71.2374 97.3745 73.4303 100.116 73.4303C102.857 73.4303 105.049 71.2374 105.049 68.4964C105.049 65.7553 102.857 63.5625 100.116 63.5625C97.3745 63.5625 95.1816 65.7553 95.1816 68.4964Z" fill="#F7EEEA"/>
<path d="M97.1914 68.498C97.1914 70.1426 98.4705 71.4218 100.115 71.4218C101.76 71.4218 103.039 70.1426 103.039 68.498C103.039 66.8534 101.76 65.5742 100.115 65.5742C98.4705 65.5742 97.1914 66.8534 97.1914 68.498Z" fill="#CE4B59"/>
<path d="M101.213 35.787C101.213 35.056 100.664 34.5078 99.9335 34.5078C99.2025 34.5078 98.6543 35.056 98.6543 35.787V42H101.03V35.787H101.213Z" fill="#DBD8D8"/>
<path d="M98.8379 42V67.5831C98.8379 68.3141 99.3861 68.8623 100.117 68.8623C100.848 68.8623 101.396 68.3141 101.396 67.5831V42H98.8379Z" fill="#CE4B59"/>
<path d="M100.299 37.9805H103.04" stroke="#081E29" stroke-width="0.93287" stroke-miterlimit="10" stroke-linecap="round" stroke-linejoin="round"/>
<path d="M100.299 47.8477H103.04" stroke="#081E29" stroke-width="0.93287" stroke-miterlimit="10" stroke-linecap="round" stroke-linejoin="round"/>
<path d="M101.76 39.9902H103.039" stroke="#081E29" stroke-width="0.93287" stroke-miterlimit="10" stroke-linecap="round" stroke-linejoin="round"/>
<path d="M101.76 42H103.039" stroke="#081E29" stroke-width="0.93287" stroke-miterlimit="10" stroke-linecap="round" stroke-linejoin="round"/>
<path d="M101.76 45.8379H103.039" stroke="#081E29" stroke-width="0.93287" stroke-miterlimit="10" stroke-linecap="round" stroke-linejoin="round"/>
<path d="M101.76 44.0098H103.039" stroke="#081E29" stroke-width="0.93287" stroke-miterlimit="10" stroke-linecap="round" stroke-linejoin="round"/>
<path d="M100.299 57.7148H103.04" stroke="#081E29" stroke-width="0.93287" stroke-miterlimit="10" stroke-linecap="round" stroke-linejoin="round"/>
<path d="M101.76 49.8574H103.039" stroke="#081E29" stroke-width="0.93287" stroke-miterlimit="10" stroke-linecap="round" stroke-linejoin="round"/>
<path d="M101.76 51.8672H103.039" stroke="#081E29" stroke-width="0.93287" stroke-miterlimit="10" stroke-linecap="round" stroke-linejoin="round"/>
<path d="M101.76 55.7051H103.039" stroke="#081E29" stroke-width="0.93287" stroke-miterlimit="10" stroke-linecap="round" stroke-linejoin="round"/>
<path d="M101.76 53.6953H103.039" stroke="#081E29" stroke-width="0.93287" stroke-miterlimit="10" stroke-linecap="round" stroke-linejoin="round"/>
<path d="M90.6119 103.947C90.6119 103.947 76.7239 111.988 62.8359 104.13" stroke="#081E29" stroke-width="1.03411" stroke-miterlimit="10" stroke-linecap="round" stroke-linejoin="round"/>
<defs>
<linearGradient id="paint0_linear_7582_6863" x1="76.5562" y1="84.6282" x2="76.5562" y2="28.6406" gradientUnits="userSpaceOnUse">
<stop offset="0.2211" stop-color="#F9D3B7"/>
<stop offset="0.8593" stop-color="#D26C5E"/>
</linearGradient>
</defs>
</svg>
