<svg width="85" height="60" viewBox="0 0 85 60" fill="none" xmlns="http://www.w3.org/2000/svg">
<path d="M33.9295 48.4662C30.8304 49.3516 30.5647 51.034 29.0595 53.0705C27.5542 55.0186 26.3145 53.6904 27.3771 50.6798C27.9084 49.086 30.0335 46.6952 31.7158 45.6327C27.9084 47.138 27.4656 51.3882 25.7833 51.9195C25.0749 52.1851 24.1894 50.9454 24.8093 49.1745C26.0489 45.3671 28.3511 42.7992 29.8564 41.6481C26.6687 42.7992 26.226 46.5182 24.8978 47.4922C24.0123 48.2005 23.7467 46.9609 24.0123 45.4556C24.4551 42.9763 25.6947 40.1429 28.6167 37.7521C31.5387 35.3614 37.8255 36.0697 45.3519 36.8667C47.5655 37.1323 48.8937 36.7781 50.4876 39.1688C52.0814 41.6481 52.1699 45.6327 51.1074 47.138C49.6906 49.086 45.1748 50.2371 40.659 50.3256C36.1431 50.4142 34.018 52.008 32.2471 53.6904C30.4762 55.3727 29.4136 54.6644 29.8564 53.5133C30.122 52.2736 31.1846 50.8569 33.9295 48.4662Z" fill="#FBDDC3"/>
<path d="M48.9878 34.1345C52.9723 30.5041 98.1307 27.3164 105.214 50.3383L90.2176 59.2165C91.5457 56.6486 50.316 54.9427 47.7481 51.7551C45.1803 48.5674 45.0032 37.7648 48.9878 34.1345Z" fill="#FF647C"/>
<path d="M-0.774288 3.60826C-0.774288 3.60826 15.8723 -3.65251 26.7635 2.98843C31.8991 6.08754 33.7586 11.7545 34.5555 15.1192C34.6441 15.4734 35.7066 14.4994 36.0608 16.0047C36.1493 16.2703 36.1493 16.713 35.8837 17.1558C34.467 19.1038 29.2428 20.0778 26.852 19.6351C26.6749 19.6351 26.2322 19.1038 26.1437 18.8381C25.5238 16.9787 26.6749 17.5985 26.5864 17.2443C25.5238 14.4994 24.3727 10.1607 20.3882 8.03555C15.3411 5.37917 6.48647 7.947 -2.10248 11.1347C-10.8685 14.2338 -0.774288 3.60826 -0.774288 3.60826Z" fill="#323C66"/>
<path d="M30.9254 22.291C30.9254 22.291 26.4981 29.906 31.2796 30.4372C35.9725 31.0571 30.9254 22.291 30.9254 22.291Z" fill="#323C66"/>
<path d="M34.3789 19.3691C34.3789 19.3691 35.7071 26.4528 37.8322 25.1246C39.9573 23.885 34.3789 19.3691 34.3789 19.3691Z" fill="#323C66"/>
<path d="M36.8569 31.5879C36.8569 31.5879 34.4661 39.2914 37.8309 38.583C42.5238 37.6976 36.8569 31.5879 36.8569 31.5879Z" fill="#323C66"/>
</svg>
