<svg width="65" height="68" viewBox="0 0 65 68" fill="none" xmlns="http://www.w3.org/2000/svg">
<path d="M61.5 17.0977H3V67.9977H61.5V17.0977Z" fill="#FFCBD3"/>
<path d="M3.00078 19.8984L0.300781 35.7984H6.10078L8.50078 19.8984H3.00078Z" fill="#FF98A8"/>
<path d="M8.50156 19.8984L6.10156 35.7984H11.9016L14.0016 19.8984H8.50156Z" fill="#FF647C"/>
<path d="M14.0004 19.8984L11.9004 35.7984H17.7004L19.5004 19.8984H14.0004Z" fill="#FF98A8"/>
<path d="M19.5012 19.8984L17.7012 35.7984H23.5012L25.1012 19.8984H19.5012Z" fill="#FF647C"/>
<path d="M25.1 19.8984L23.5 35.7984H29.3L30.1 19.8984H25.1Z" fill="#FF98A8"/>
<path d="M61.5 19.8984H56L58.4 35.7984H64.2L61.5 19.8984Z" fill="#FF98A8"/>
<path d="M50.4004 19.8984L52.6004 35.7984H58.4004L56.0004 19.8984H50.4004Z" fill="#FF647C"/>
<path d="M44.9004 19.8984L46.8004 35.7984H52.6004L50.4004 19.8984H44.9004Z" fill="#FF98A8"/>
<path d="M39.4004 19.8984L40.9004 35.7984H46.8004L44.9004 19.8984H39.4004Z" fill="#FF647C"/>
<path d="M34.4004 19.8984L35.1004 35.7984H40.9004L39.4004 19.8984H34.4004Z" fill="#FF98A8"/>
<path d="M33.9008 19.8984H32.2008H30.6008H30.1008L29.3008 35.7984H32.2008H35.1008L34.4008 19.8984H33.9008Z" fill="#FF647C"/>
<path d="M3.20078 38.6988C4.80078 38.6988 6.10078 37.3988 6.10078 35.7988H0.300781C0.300781 37.3988 1.60078 38.6988 3.20078 38.6988Z" fill="#C34E46"/>
<path d="M9.00156 38.6988C10.6016 38.6988 11.9016 37.3988 11.9016 35.7988H6.10156C6.10156 37.3988 7.40156 38.6988 9.00156 38.6988Z" fill="#FF647C"/>
<path d="M14.8004 38.6988C16.4004 38.6988 17.7004 37.3988 17.7004 35.7988H11.9004C11.9004 37.3988 13.2004 38.6988 14.8004 38.6988Z" fill="#C34E46"/>
<path d="M20.6012 38.6988C22.2012 38.6988 23.5012 37.3988 23.5012 35.7988H17.7012C17.7012 37.3988 19.0012 38.6988 20.6012 38.6988Z" fill="#FF647C"/>
<path d="M26.4 38.6988C28 38.6988 29.3 37.3988 29.3 35.7988H23.5C23.5 37.3988 24.8 38.6988 26.4 38.6988Z" fill="#C34E46"/>
<path d="M32.2008 38.6988C33.8008 38.6988 35.1008 37.3988 35.1008 35.7988H29.3008C29.3008 37.3988 30.6008 38.6988 32.2008 38.6988Z" fill="#FF647C"/>
<path d="M38.0016 38.6988C39.6016 38.6988 40.9016 37.3988 40.9016 35.7988H35.1016C35.1016 37.3988 36.4016 38.6988 38.0016 38.6988Z" fill="#C34E46"/>
<path d="M43.9015 38.6988C45.5015 38.6988 46.8015 37.3988 46.8015 35.7988H41.0015C40.9015 37.3988 42.2015 38.6988 43.9015 38.6988Z" fill="#FF647C"/>
<path d="M49.7008 38.6988C51.3008 38.6988 52.6008 37.3988 52.6008 35.7988H46.8008C46.8008 37.3988 48.1008 38.6988 49.7008 38.6988Z" fill="#C34E46"/>
<path d="M55.5016 38.6988C57.1016 38.6988 58.4016 37.3988 58.4016 35.7988H52.6016C52.6016 37.3988 53.9016 38.6988 55.5016 38.6988Z" fill="#FF647C"/>
<path d="M61.3004 38.6988C62.9004 38.6988 64.2004 37.3988 64.2004 35.7988H58.4004C58.4004 37.3988 59.7004 38.6988 61.3004 38.6988Z" fill="#C34E46"/>
<path d="M61.5 14.6992H3V17.7992H61.5V14.6992Z" fill="#3D4A80"/>
<path d="M61.5 17.0977H3V18.5977H61.5V17.0977Z" fill="#323C66"/>
<path d="M11.9 7.99805H10.5V15.5981H11.9V7.99805Z" fill="#3D4A80"/>
<path d="M53.3004 7.99805H51.9004V15.5981H53.3004V7.99805Z" fill="#3D4A80"/>
<path d="M11.9012 11.498H11.2012V14.698H11.9012V11.498Z" fill="#323C66"/>
<path d="M53.3015 11.498H52.6016V14.698H53.3015V11.498Z" fill="#323C66"/>
<path d="M56.4 0.398438H7.5V12.1984H56.4V0.398438Z" fill="white"/>
<path d="M55.3 1.49844V11.0984H8.60001V1.49844H55.3ZM56.4 0.398438H7.5V12.1984H56.4V0.398438Z" fill="#323C66"/>
<path d="M39.4 41.8984H7.5V63.1984H39.4V41.8984Z" fill="#FF647C"/>
<path d="M19.2378 39.1562L6.90039 64.1797L11.654 66.5233L23.9913 41.4998L19.2378 39.1562Z" fill="#FF98A8"/>
<path d="M15.3675 38.1191L3.02734 63.1426L4.73145 63.9829L17.0716 38.9594L15.3675 38.1191Z" fill="#FF98A8"/>
<path d="M40.2008 63.9992H6.80078V41.1992H40.2008V63.9992ZM8.30078 62.4992H38.6008V42.6992H8.30078V62.4992Z" fill="#323C66"/>
<path d="M57.5012 41.1992H44.2012V67.9992H57.5012V41.1992Z" fill="#FF647C"/>
<path d="M49.9301 38.6756L39.6035 55.0977L43.4128 57.493L53.7394 41.0709L49.9301 38.6756Z" fill="#FF98A8"/>
<path d="M56.1162 39.6889L42.1699 61.8672L43.9476 62.985L57.8938 40.8067L56.1162 39.6889Z" fill="#FF98A8"/>
<path d="M44.2012 41.1992V67.9992H57.5012V41.1992H44.2012ZM56.0012 42.6992V53.7992H50.5012V52.8992H47.0012V53.7992H45.7012V42.6992H56.0012ZM45.7012 66.4992V55.3992H47.0012V56.2992H50.4012V55.3992H55.9012V66.4992H45.7012Z" fill="#323C66"/>
<path d="M18.1417 3.64447H19.6224L20.8706 6.22727L22.1122 3.64447H23.5928V8.29883H22.3778V5.53675L21.3155 7.8407H20.4191L19.3568 5.53675V8.29883H18.1417V3.64447ZM27.7854 8.29883L27.5132 7.55519H25.6342L25.3554 8.29883H23.9345L25.9197 3.64447H27.3406L29.2594 8.29883H27.7854ZM26.0193 6.54597H27.148L26.5903 5.02551L26.0193 6.54597ZM32.3278 8.29883L31.7103 7.04394H30.98V8.29883H29.5989V3.64447H31.7701C32.3942 3.64447 32.8767 3.78833 33.2175 4.07604C33.5628 4.36376 33.7354 4.77099 33.7354 5.29773C33.7354 5.63856 33.6668 5.93513 33.5296 6.18744C33.3968 6.43531 33.2042 6.63229 32.9519 6.77836L33.8948 8.29883H32.3278ZM30.98 5.98161H31.7701C31.9781 5.98161 32.1375 5.92628 32.2481 5.81562C32.3632 5.70496 32.4208 5.54561 32.4208 5.33757C32.4208 5.13395 32.3632 4.97903 32.2481 4.87279C32.1375 4.76213 31.9781 4.7068 31.7701 4.7068H30.98V5.98161ZM39.0511 8.29883H37.3979L36.309 6.58581L35.7911 7.15682V8.29883H34.4101V3.64447H35.7911V5.5102L37.3514 3.64447H38.9449L37.2518 5.53011L39.0511 8.29883ZM39.4611 3.64447H43.2656V4.7068H40.8421V5.43716H43.0398V6.4995H40.8421V7.23649H43.332V8.29883H39.4611V3.64447ZM43.6415 3.64447H47.7315V4.74664H46.377V8.29883H44.9893V4.74664H43.6415V3.64447Z" fill="#2F2E2E"/>
</svg>
